<?xml version="1.0" encoding="UTF-8"?>
<svg id="Layer_1" data-name="Layer 1" xmlns="http://www.w3.org/2000/svg" width="1024" height="823.04" viewBox="0 0 1024 823.04">
  <polyline points="72.45 187.5 113 187.5 113 115.05 0 115.05 0 386.41 0 657.77 563.74 657.77 541.42 585.32 72.45 585.32" style="fill: #fff; stroke-width: 0px;"/>
  <path d="M1024,115.05H461.85c1.47,11.39,2.25,23.27,2.25,35.65s-.83,25.07-2.4,36.81h489.84v397.82h-135.59l-20.7,72.45h228.75" style="fill: #fff; stroke-width: 0px;"/>
  <polygon points="927.18 96.94 951.55 11.59 855.91 11.59 831.54 96.94 927.18 96.94" style="fill: #fff; stroke-width: 0px;"/>
  <path d="M827.8,205.62c-8.92,28.36-25.01,50.63-46.29,66.52l-102.31,366.59h-1.16l-19.13-68.97-44.05-152.44h-96.79l87.52,284.01h54.48l-34.2,121.72h93.9l115.92-405.72,60.45-211.7h-68.34Z" style="fill: #fff; stroke-width: 0px;"/>
  <path d="M728.13,205.62c-9.55,15.72-24.67,23.91-43.71,23.91s-34.16-8.18-43.71-23.91h-99.68c19.77,62.88,74.81,95.78,143.39,95.78,37.64,0,71.2-9.92,97.1-29.26l18.99-66.52h-72.38Z" style="fill: #fff; stroke-width: 0px;"/>
  <path d="M640.04,96.94c9.5-16.48,24.89-25.07,44.38-25.07s34.88,8.59,44.38,25.07h99.32C808.67,33.32,753.41,0,684.42,0s-124.3,33.3-143.75,96.94h99.37Z" style="fill: #fff; stroke-width: 0px;"/>
  <polygon points="232.91 675.88 140.17 675.88 140.17 820.14 256.1 820.14 256.1 745.95 232.91 745.95 232.91 675.88" style="fill: #fff; stroke-width: 0px;"/>
  <path d="M320.43,0c-39.99,0-73.03,20.87-90.42,53.32V5.8h-89.84v561.41h92.74V252.71c17.97,30.14,49.27,48.69,87.52,48.69,60.28,0,116.5-46.37,116.5-150.7S380.71,0,320.43,0ZM340.72,156.49c0,46.37-20.29,72.45-54.48,72.45s-53.32-24.92-53.32-66.66v-22.02c0-45.79,20.29-72.45,53.32-72.45s54.48,27.82,54.48,78.25v10.43Z" style="fill: #fff; stroke-width: 0px;"/>
</svg>